<svg width="23" height="16" viewBox="0 0 23 16" fill="none" xmlns="http://www.w3.org/2000/svg">
<path d="M11.7195 12.5C12.9695 12.5 14.032 12.0625 14.907 11.1875C15.782 10.3125 16.2195 9.25 16.2195 8C16.2195 6.75 15.782 5.6875 14.907 4.8125C14.032 3.9375 12.9695 3.5 11.7195 3.5C10.4695 3.5 9.40698 3.9375 8.53198 4.8125C7.65698 5.6875 7.21948 6.75 7.21948 8C7.21948 9.25 7.65698 10.3125 8.53198 11.1875C9.40698 12.0625 10.4695 12.5 11.7195 12.5ZM11.7195 10.7C10.9695 10.7 10.332 10.4375 9.80698 9.9125C9.28198 9.3875 9.01948 8.75 9.01948 8C9.01948 7.25 9.28198 6.6125 9.80698 6.0875C10.332 5.5625 10.9695 5.3 11.7195 5.3C12.4695 5.3 13.107 5.5625 13.632 6.0875C14.157 6.6125 14.4195 7.25 14.4195 8C14.4195 8.75 14.157 9.3875 13.632 9.9125C13.107 10.4375 12.4695 10.7 11.7195 10.7ZM11.7195 15.5C9.28615 15.5 7.06948 14.8208 5.06948 13.4625C3.06948 12.1042 1.61948 10.2833 0.719482 8C1.61948 5.71667 3.06948 3.89583 5.06948 2.5375C7.06948 1.17917 9.28615 0.5 11.7195 0.5C14.1528 0.5 16.3695 1.17917 18.3695 2.5375C20.3695 3.89583 21.8195 5.71667 22.7195 8C21.8195 10.2833 20.3695 12.1042 18.3695 13.4625C16.3695 14.8208 14.1528 15.5 11.7195 15.5ZM11.7195 13.5C13.6028 13.5 15.332 13.0042 16.907 12.0125C18.482 11.0208 19.6862 9.68333 20.5195 8C19.6862 6.31667 18.482 4.97917 16.907 3.9875C15.332 2.99583 13.6028 2.5 11.7195 2.5C9.83615 2.5 8.10698 2.99583 6.53198 3.9875C4.95698 4.97917 3.75282 6.31667 2.91948 8C3.75282 9.68333 4.95698 11.0208 6.53198 12.0125C8.10698 13.0042 9.83615 13.5 11.7195 13.5Z" fill="black"/>
</svg>
