<svg width="23" height="20" viewBox="0 0 23 20" fill="none" xmlns="http://www.w3.org/2000/svg">
<path d="M15.3834 10.6909L13.9334 9.24092C14.0834 8.45759 13.8584 7.72425 13.2584 7.04092C12.6584 6.35758 11.8834 6.09092 10.9334 6.24092L9.48345 4.79092C9.76678 4.65758 10.0543 4.55758 10.3459 4.49092C10.6376 4.42425 10.9501 4.39092 11.2834 4.39092C12.5334 4.39092 13.5959 4.82842 14.4709 5.70342C15.3459 6.57842 15.7834 7.64092 15.7834 8.89092C15.7834 9.22425 15.7501 9.53675 15.6834 9.82842C15.6168 10.1201 15.5168 10.4076 15.3834 10.6909ZM18.5834 13.8409L17.1334 12.4409C17.7668 11.9576 18.3293 11.4284 18.8209 10.8534C19.3126 10.2784 19.7334 9.62425 20.0834 8.89092C19.2501 7.20759 18.0543 5.87009 16.4959 4.87842C14.9376 3.88675 13.2001 3.39092 11.2834 3.39092C10.8001 3.39092 10.3251 3.42425 9.85845 3.49092C9.39178 3.55758 8.93345 3.65758 8.48345 3.79092L6.93345 2.24092C7.61678 1.95758 8.31678 1.74508 9.03345 1.60342C9.75011 1.46175 10.5001 1.39092 11.2834 1.39092C13.8001 1.39092 16.0418 2.08675 18.0084 3.47842C19.9751 4.87009 21.4001 6.67425 22.2834 8.89092C21.9001 9.87425 21.3959 10.7868 20.7709 11.6284C20.1459 12.4701 19.4168 13.2076 18.5834 13.8409ZM19.0834 19.9909L14.8834 15.8409C14.3001 16.0243 13.7126 16.1618 13.1209 16.2534C12.5293 16.3451 11.9168 16.3909 11.2834 16.3909C8.76678 16.3909 6.52511 15.6951 4.55845 14.3034C2.59178 12.9118 1.16678 11.1076 0.283447 8.89092C0.633447 8.00759 1.07511 7.18675 1.60845 6.42842C2.14178 5.67009 2.75011 4.99092 3.43345 4.39092L0.683447 1.59092L2.08345 0.190918L20.4834 18.5909L19.0834 19.9909ZM4.83345 5.79092C4.35011 6.22425 3.90845 6.69925 3.50845 7.21592C3.10845 7.73259 2.76678 8.29092 2.48345 8.89092C3.31678 10.5743 4.51261 11.9118 6.07095 12.9034C7.62928 13.8951 9.36678 14.3909 11.2834 14.3909C11.6168 14.3909 11.9418 14.3701 12.2584 14.3284C12.5751 14.2868 12.9001 14.2409 13.2334 14.1909L12.3334 13.2409C12.1501 13.2909 11.9751 13.3284 11.8084 13.3534C11.6418 13.3784 11.4668 13.3909 11.2834 13.3909C10.0334 13.3909 8.97095 12.9534 8.09595 12.0784C7.22095 11.2034 6.78345 10.1409 6.78345 8.89092C6.78345 8.70759 6.79595 8.53259 6.82095 8.36592C6.84595 8.19925 6.88345 8.02425 6.93345 7.84092L4.83345 5.79092Z" fill="black"/>
</svg>
